<mxfile host="app.diagrams.net" modified="2023-02-27T16:00:37.163Z" agent="5.0 (Macintosh; Intel Mac OS X 10_15_7) AppleWebKit/537.36 (KHTML, like Gecko) Chrome/109.0.0.0 Safari/537.36" etag="Z22cWmuC6MkfPzprYCeH" version="20.8.23" type="github">
  <diagram id="C5RBs43oDa-KdzZeNtuy" name="Page-1">
    <mxGraphModel dx="954" dy="615" grid="0" gridSize="10" guides="1" tooltips="1" connect="1" arrows="1" fold="1" page="1" pageScale="1" pageWidth="827" pageHeight="1169" math="0" shadow="0">
      <root>
        <mxCell id="WIyWlLk6GJQsqaUBKTNV-0" />
        <mxCell id="WIyWlLk6GJQsqaUBKTNV-1" parent="WIyWlLk6GJQsqaUBKTNV-0" />
        <mxCell id="zPsaEDk8_n9u6-52wdqB-2" value="«interface»&lt;br&gt;&lt;b&gt;Map&lt;/b&gt;" style="html=1;fillColor=#d5e8d4;strokeColor=#82b366;" vertex="1" parent="WIyWlLk6GJQsqaUBKTNV-1">
          <mxGeometry x="296" y="81" width="110" height="50" as="geometry" />
        </mxCell>
        <mxCell id="zPsaEDk8_n9u6-52wdqB-13" style="edgeStyle=none;rounded=0;orthogonalLoop=1;jettySize=auto;html=1;exitX=0;exitY=0.5;exitDx=0;exitDy=0;entryX=0.5;entryY=1;entryDx=0;entryDy=0;" edge="1" parent="WIyWlLk6GJQsqaUBKTNV-1" source="zPsaEDk8_n9u6-52wdqB-3" target="zPsaEDk8_n9u6-52wdqB-2">
          <mxGeometry relative="1" as="geometry" />
        </mxCell>
        <mxCell id="zPsaEDk8_n9u6-52wdqB-3" value="«interface»&lt;br&gt;&lt;b&gt;SortedMap&lt;/b&gt;" style="html=1;fillColor=#d5e8d4;strokeColor=#82b366;" vertex="1" parent="WIyWlLk6GJQsqaUBKTNV-1">
          <mxGeometry x="465" y="150" width="110" height="50" as="geometry" />
        </mxCell>
        <mxCell id="zPsaEDk8_n9u6-52wdqB-12" style="rounded=0;orthogonalLoop=1;jettySize=auto;html=1;exitX=0.5;exitY=0;exitDx=0;exitDy=0;entryX=0.5;entryY=1;entryDx=0;entryDy=0;dashed=1;" edge="1" parent="WIyWlLk6GJQsqaUBKTNV-1" source="zPsaEDk8_n9u6-52wdqB-4" target="zPsaEDk8_n9u6-52wdqB-2">
          <mxGeometry relative="1" as="geometry" />
        </mxCell>
        <mxCell id="zPsaEDk8_n9u6-52wdqB-4" value="Hashtable" style="html=1;rounded=1;fillColor=#fff2cc;strokeColor=#d6b656;" vertex="1" parent="WIyWlLk6GJQsqaUBKTNV-1">
          <mxGeometry x="128" y="189" width="110" height="50" as="geometry" />
        </mxCell>
        <mxCell id="zPsaEDk8_n9u6-52wdqB-10" style="edgeStyle=orthogonalEdgeStyle;rounded=0;orthogonalLoop=1;jettySize=auto;html=1;exitX=0.5;exitY=0;exitDx=0;exitDy=0;entryX=0.5;entryY=1;entryDx=0;entryDy=0;dashed=1;" edge="1" parent="WIyWlLk6GJQsqaUBKTNV-1" source="zPsaEDk8_n9u6-52wdqB-5" target="zPsaEDk8_n9u6-52wdqB-2">
          <mxGeometry relative="1" as="geometry" />
        </mxCell>
        <mxCell id="zPsaEDk8_n9u6-52wdqB-5" value="HashMap" style="html=1;rounded=1;fillColor=#fff2cc;strokeColor=#d6b656;" vertex="1" parent="WIyWlLk6GJQsqaUBKTNV-1">
          <mxGeometry x="296" y="189" width="110" height="50" as="geometry" />
        </mxCell>
        <mxCell id="zPsaEDk8_n9u6-52wdqB-14" style="edgeStyle=none;rounded=0;orthogonalLoop=1;jettySize=auto;html=1;exitX=0.5;exitY=0;exitDx=0;exitDy=0;entryX=0.5;entryY=1;entryDx=0;entryDy=0;" edge="1" parent="WIyWlLk6GJQsqaUBKTNV-1" source="zPsaEDk8_n9u6-52wdqB-6" target="zPsaEDk8_n9u6-52wdqB-3">
          <mxGeometry relative="1" as="geometry" />
        </mxCell>
        <mxCell id="zPsaEDk8_n9u6-52wdqB-6" value="«interface»&lt;br&gt;&lt;b&gt;NavigableMap&lt;/b&gt;" style="html=1;fillColor=#d5e8d4;strokeColor=#82b366;" vertex="1" parent="WIyWlLk6GJQsqaUBKTNV-1">
          <mxGeometry x="465" y="245" width="110" height="50" as="geometry" />
        </mxCell>
        <mxCell id="zPsaEDk8_n9u6-52wdqB-15" style="edgeStyle=none;rounded=0;orthogonalLoop=1;jettySize=auto;html=1;exitX=0.5;exitY=0;exitDx=0;exitDy=0;entryX=0.5;entryY=1;entryDx=0;entryDy=0;dashed=1;" edge="1" parent="WIyWlLk6GJQsqaUBKTNV-1" source="zPsaEDk8_n9u6-52wdqB-7" target="zPsaEDk8_n9u6-52wdqB-6">
          <mxGeometry relative="1" as="geometry" />
        </mxCell>
        <mxCell id="zPsaEDk8_n9u6-52wdqB-7" value="TreeMap" style="html=1;rounded=1;fillColor=#fff2cc;strokeColor=#d6b656;" vertex="1" parent="WIyWlLk6GJQsqaUBKTNV-1">
          <mxGeometry x="465" y="346" width="110" height="50" as="geometry" />
        </mxCell>
        <mxCell id="zPsaEDk8_n9u6-52wdqB-11" style="edgeStyle=orthogonalEdgeStyle;rounded=0;orthogonalLoop=1;jettySize=auto;html=1;exitX=0.5;exitY=0;exitDx=0;exitDy=0;entryX=0.5;entryY=1;entryDx=0;entryDy=0;" edge="1" parent="WIyWlLk6GJQsqaUBKTNV-1" source="zPsaEDk8_n9u6-52wdqB-8" target="zPsaEDk8_n9u6-52wdqB-5">
          <mxGeometry relative="1" as="geometry" />
        </mxCell>
        <mxCell id="zPsaEDk8_n9u6-52wdqB-8" value="LinkedHashMap" style="html=1;rounded=1;fillColor=#fff2cc;strokeColor=#d6b656;" vertex="1" parent="WIyWlLk6GJQsqaUBKTNV-1">
          <mxGeometry x="296" y="289" width="110" height="50" as="geometry" />
        </mxCell>
      </root>
    </mxGraphModel>
  </diagram>
</mxfile>
